<svg id="Layer_1" data-name="Layer 1" xmlns="http://www.w3.org/2000/svg" viewBox="0 0 480.07 480.07"><defs><style>.cls-1{fill:#cfd9e4;}.cls-2{fill:#0c3555;}.cls-11,.cls-2,.cls-3,.cls-4,.cls-5,.cls-8,.cls-9{fill-rule:evenodd;}.cls-3{fill:#fff5d1;}.cls-4{fill:#fac47b;}.cls-5{fill:#fff;}.cls-6{fill:#ab2423;}.cls-6,.cls-7{stroke:#0c3555;stroke-miterlimit:10;stroke-width:3px;}.cls-7,.cls-8{fill:#a4cad3;}.cls-9{fill:#d3e7eb;}.cls-10{fill:#6998b9;}.cls-11{fill:#fee7ae;}</style></defs><rect class="cls-1" x="-23.94" y="-30.17" width="540.62" height="540.62"/><path class="cls-2" d="M66.26,156.29H222a10.42,10.42,0,0,1,10.38,10.38V360A10.42,10.42,0,0,1,222,370.35H66.26A10.42,10.42,0,0,1,55.88,360V166.67A10.36,10.36,0,0,1,66.26,156.29Z"/><path class="cls-3" d="M66.26,163.52H222a3.17,3.17,0,0,1,3.16,3.15V360a3.18,3.18,0,0,1-3.16,3.16H66.26A3.17,3.17,0,0,1,63.11,360V166.67A3.16,3.16,0,0,1,66.26,163.52Z"/><path class="cls-4" d="M225.08,243.38V360a3.18,3.18,0,0,1-3.16,3.16H66.26A3.17,3.17,0,0,1,63.11,360V311.44C138.7,327.72,194.25,299.85,225.08,243.38Z"/><path class="cls-5" d="M70.53,270.44v21.27l70.1-119H73.48a2.92,2.92,0,0,0-2.85,2.85v94.92Z"/><path class="cls-2" d="M122.6,200.8h-14c-4.17,10.07-17.6,15.57-33.77,16.69v14h27.67v102H122.6V200.8Zm43.24-1.93c-20.14,0-32.45,12.72-32.45,33.57v69.39c0,20.86,12.31,33.57,32.45,33.57s32.46-12.71,32.46-33.57V232.44c0-20.85-12.31-33.57-32.46-33.57Zm0,18.62c7.94,0,12.31,5.29,12.31,15.16v69c0,9.86-4.37,15.16-12.31,15.16s-12.31-5.3-12.31-15.16v-69C153.53,222.78,157.91,217.49,165.84,217.49Z"/><ellipse class="cls-6" cx="263.58" cy="390.88" rx="102.83" ry="44.43"/><ellipse class="cls-7" cx="264.85" cy="375.83" rx="79.94" ry="35.14"/><path class="cls-2" d="M405.22,181.39C363.73,238.28,310,300.74,300.15,363.64c-3.9,25.21-54.43,15.95-71.27,4.35-34-23.42,49.75-118,100.16-160.39,14.39-12.15,27.66-18.73,32.68-19.85C381.24,183.62,404.55,184.74,405.22,181.39Z"/><path class="cls-2" d="M391.61,190.09c-7.36.56-14.61,1.12-21.86,2.23-2.23.34-4.57.78-6.8,1.23-3.24.67-8.37,3.46-11.15,5.13a124.52,124.52,0,0,0-19,13.5,510.12,510.12,0,0,0-52.53,51.64C271.93,273.3,263.79,283,256.21,293a250.65,250.65,0,0,0-18.63,28.11c-4.91,8.81-14.72,28.44-8.81,38.48a11.56,11.56,0,0,0,3.57,3.79c7.25,5,19.29,8.26,27.88,9.59,9.26,1.45,32.24,3.24,34.25-10.15,3.56-23.2,12.82-45.5,23.86-66,11.83-22.08,26.22-43,41.05-63.35C369.86,218.87,380.91,204.48,391.61,190.09Z"/><path class="cls-8" d="M322.35,221.1a106.35,106.35,0,0,1,17.73,6.47,73.62,73.62,0,0,1,16.07,10.15c-.9,1.23-1.79,2.56-2.68,3.79a67.26,67.26,0,0,0-15.28-9.81,100,100,0,0,0-20-6.92c1.34-1.11,2.68-2.34,4.13-3.68Zm-20.19,19.3c-1.34,1.33-2.68,2.67-4,4.12a59.58,59.58,0,0,1,18.73,5.58,82.84,82.84,0,0,1,20.75,14.61c.89-1.34,1.78-2.56,2.57-3.9a89.41,89.41,0,0,0-21.31-14.95,63.44,63.44,0,0,0-16.73-5.46Zm-23.31,24.87c-1.12,1.34-2.34,2.68-3.46,3.9a132.8,132.8,0,0,1,25.1,8.37,115.4,115.4,0,0,1,21.41,12.6l2.35-4a120.76,120.76,0,0,0-21.87-12.83,142.46,142.46,0,0,0-23.53-8Zm-21,25.32c-.56.78-1.11,1.56-1.78,2.34l-1,1.34a149.74,149.74,0,0,0,17.4,8c12.49,5.13,27.33,10.37,36.48,13.27.66-1.45,1.22-2.79,1.89-4.24-9-2.9-24.09-8.25-36.69-13.38a163.63,163.63,0,0,1-16.29-7.36Zm-17.06,24.65c5.13,4.79,14.72,9.37,25.31,12.94,12.5,4.23,26.22,6.91,35.36,6.58-.56,1.56-1,3-1.45,4.57-9.81-.11-23.2-2.68-35.36-6.8-10.48-3.57-20.18-8.26-26.1-13.39C239.25,317.91,240,316.58,240.82,315.24Z"/><path class="cls-2" d="M233.23,332.75c-1,1.78-.45,5.35,0,7.36,1.56,2.23,8.48,5.35,10.82,6.25a77.17,77.17,0,0,0,24.54,5,75.32,75.32,0,0,0,11.26-.23c4.91-.44,17-2.23,19.41-7.25a6.22,6.22,0,0,0,.45-1.34c.22-1.33.33-2.67.44-3.9,0-.67.12-1.45.12-2.12.44-3.57,2.9-6.58,6.91-6.8a22.93,22.93,0,0,1,17.51,6.13,24.17,24.17,0,0,1,7.14,20.3c-.89,8.59-5.91,15.95-12.94,21-13.49,9.82-32,13.5-48.63,13.72-13.72.22-28.55-2-41.16-7C218.28,379.48,207,372,203.56,360.52a25.41,25.41,0,0,1-.89-9.14c1.45-15.4,6.13-26.55,23.53-29.23,2.9-.44,7.14-.67,8.7,1.79,1.34,2.23-.22,6.47-1.67,8.81Z"/><path class="cls-8" d="M227.21,329c-13.72,2.12-16.4,10.7-17.51,23-2.79,30.68,72.05,43.39,104.84,19.63,17.85-12.93,10.26-35.91-6.91-34.91-.56,0,.11,6.25-1.9,10.26-4.68,9.71-23.42,12.16-37.48,11.49-21.63-1-40.15-10-41.82-16.17C224,333.31,227.21,329,227.21,329Z"/><path class="cls-2" d="M220.29,350.26a4.66,4.66,0,0,1,4.46,4.68,4.59,4.59,0,0,1-4.79,4.35,4.66,4.66,0,0,1-4.46-4.68,4.52,4.52,0,0,1,4.79-4.35Zm92.36,4.68a4.68,4.68,0,0,1,4.46,4.69,4.61,4.61,0,0,1-4.8,4.35,4.67,4.67,0,0,1-4.46-4.69,4.6,4.6,0,0,1,4.8-4.35Zm-16.4,9a4.66,4.66,0,0,1,4.46,4.68,4.59,4.59,0,0,1-4.79,4.35,4.67,4.67,0,0,1-4.47-4.68,4.61,4.61,0,0,1,4.8-4.35Zm-20,3.9a4.67,4.67,0,0,1,4.47,4.69,4.61,4.61,0,0,1-4.8,4.35,4.66,4.66,0,0,1-4.46-4.69,4.53,4.53,0,0,1,4.79-4.35Zm-21.52-1.78a4.67,4.67,0,0,1,4.46,4.68,4.6,4.6,0,0,1-4.8,4.35,4.67,4.67,0,0,1-4.46-4.68,4.53,4.53,0,0,1,4.8-4.35Zm-19.19-6.25a4.66,4.66,0,0,1,4.46,4.69,4.6,4.6,0,0,1-4.79,4.35,4.66,4.66,0,0,1-4.46-4.69A4.6,4.6,0,0,1,235.57,359.85Z"/><path class="cls-9" d="M226.09,336.76c-2.67,21.87,58.23,29,76.85,16.4l1.79-1.23c-8.81,18.63-88.9,17.85-86.22-16.5a3.85,3.85,0,1,1,7.58,1.33Z"/><path class="cls-2" d="M327.93,51.12a86.17,86.17,0,1,1-81.54,90.56A86.1,86.1,0,0,1,327.93,51.12Z"/><circle class="cls-10" cx="332.49" cy="137.1" r="79.19"/><path class="cls-8" d="M328.26,58a79.14,79.14,0,0,0-73.95,66.25,79.23,79.23,0,0,0,155.82-2.9A79.23,79.23,0,0,0,328.26,58Z"/><path class="cls-2" d="M265.24,89.26c-11.71,14.61-14.83,41.16-14.27,52.2s2.67,3.46,2.9,5.13c16.39-18.07,22-13.16,30.33-8.81,8.59,4.46,10.93,20.64,33.69,22.87s50.86-34.69,33.68-52.09C338.08,95,301.94,84.91,275.28,87.14,273.72,87.37,266.8,89,265.24,89.26Z"/><path class="cls-8" d="M331.27,118.15a12.79,12.79,0,1,0,13.5,12A12.82,12.82,0,0,0,331.27,118.15Z"/><path class="cls-2" d="M333.28,172.8c2.34.56,7.92.34,10.26.34,6.47.11,17.51-.34,20.08,7.25a9.08,9.08,0,0,1,0,5.46c-2.68,7.7-14.28,14.17-21.08,17.85-11.27,6.13-23.54,11.27-35.47,16-8,3.12-16.06,6.13-24.09,8.92-19.75,6.92-39,13.16-60.23,11-6.14-.55-13.17-2.45-15.73-8.81-2.34-5.68.45-11.37,3.79-16,3.91-5.35,9.26-10.48,14.17-15,9.14-8.37,23-21.53,27.77-33.24,2.79-6.81,6.47-14.17,11.27-19.74,4.12-4.8,9.59-8.82,16.28-8.48,10.82.67,16.62,12,19.63,21C304.06,171.35,323.35,168.23,333.28,172.8Z"/><path class="cls-4" d="M293.35,161.76c5.91,16.84,28.22,13.16,37.14,17.51,4.35,2.12,28.33-1,26.55,4.46-3.46,10.27-45.18,27.67-76.29,38.49-18.63,6.46-37.15,12.71-57.22,10.7-16.73-1.67-11.71-11.37,6.24-27.77,18.3-16.84,26-27.22,29.56-35.69C270,142.8,284.32,135.66,293.35,161.76Z"/><path class="cls-2" d="M335.29,179.83c-.67,3.68-4,6.8-6.81,9.15a141,141,0,0,1-15.28,10.37,428.93,428.93,0,0,1-48.29,24.87c-16.84,7.36-37.59,15.28-55.88,17.51-8.59,1-25.21,2.9-29.34-7.25-3-7.69,3.68-15.72,8.59-21,6.36-6.81,13.61-13.17,20.64-19.41,1.56-1.45,3.23-2.9,4.79-4.35,7.92-7.25,30-27.33,34-37,2.57-6.25,6.14-12.83,11-17.63,4.24-4.12,9.6-7.13,15.62-6.8a18.51,18.51,0,0,1,8.7,2.68,73.73,73.73,0,0,1,13.27,10.26,112.61,112.61,0,0,0,9.48,8.36A24.29,24.29,0,0,0,318,154.51c7.58,1,16.4-.56,23.76-2.34,4.9-1.23,11.26-2,13.94,3.68,2.23,4.91-1.23,8.92-4.69,11.93-2.45,2.24-5.24,4.24-7.91,6.25-1.9,1.45-3.91,2.9-5.8,4.46A10.65,10.65,0,0,0,335.29,179.83Z"/><path class="cls-11" d="M326.48,181.5c-12.38,12.05-79.86,48.63-118.35,53.21-43.61,5.24-13.71-18,10.15-39.93,18.3-16.85,32.24-31,35.7-39.49,7.14-17.29,16.84-23.53,25.32-18.4,21.63,13.05,21.86,32,63.8,22C360.27,154.73,331.38,176.71,326.48,181.5Z"/><path class="cls-2" d="M348.56,150.16A20.61,20.61,0,1,1,329,171.8,20.59,20.59,0,0,1,348.56,150.16Z"/><path class="cls-8" d="M348.78,155.07a15.69,15.69,0,1,0,16.51,14.83A15.64,15.64,0,0,0,348.78,155.07Z"/><path class="cls-2" d="M357.93,161.54a12.32,12.32,0,1,1-17.4.89A12.33,12.33,0,0,1,357.93,161.54Z"/><path class="cls-8" d="M356.26,163.32a9.88,9.88,0,1,0,.78,14A10,10,0,0,0,356.26,163.32Z"/><path class="cls-2" d="M356.26,163.32a8.31,8.31,0,0,0-1.56-1.11L341.76,176.6a5.53,5.53,0,0,0,1.34,1.45,7.7,7.7,0,0,0,1.56,1.11l12.94-14.39C357.15,164.22,356.7,163.77,356.26,163.32Z"/><path class="cls-2" d="M336.74,122.28a5.53,5.53,0,1,0,5.8,5.24A5.43,5.43,0,0,0,336.74,122.28Z"/><path class="cls-8" d="M266.13,113.69c-2.78-.78-6.24,3-7.69,8.48s-.22,10.37,2.56,11,6.25-3,7.7-8.48S269,114.36,266.13,113.69Z"/><path class="cls-2" d="M267.36,117.59c-1.23-.33-2.68,1.34-3.34,3.68s-.12,4.46,1.11,4.8,2.68-1.34,3.35-3.68S268.59,117.93,267.36,117.59Z"/><path class="cls-9" d="M390.5,130.08c-1.9-34-23-55-55.1-64-18.63-5.24,4.57,1.9-14.84-4.12,10.49-2.24,12.61-2.46,23.43-.45,35.69,6.58,57.66,32.46,62.12,67.93a7.69,7.69,0,0,1-7.47,8.14A7.84,7.84,0,0,1,390.5,130.08Z"/><path class="cls-5" d="M274.5,149.83c-10.71,23.64-17.07,26.54-36.92,42.27-13.5,10.71-27.33,22.53-42.38,30.78,9-15,22.64-26.88,35-39.15,15.84-15.61,21.75-18.18,29.33-39.26a7.84,7.84,0,0,1,10-4.79A8,8,0,0,1,274.5,149.83Z"/></svg>